<svg id="Capa_1" enable-background="new 0 0 512 512" height="512" viewBox="0 0 512 512" width="512" xmlns="http://www.w3.org/2000/svg"><g><g><path d="m331 421h90v91h-90z" fill="#283d66"/><path d="m91 421h90v91h-90z" fill="#405580"/><path d="m61 301v-30h-30v30c0 16.569 13.431 30 30 30h30v-15z" fill="#405580"/><path d="m451 301v-30h30v30c0 16.569-13.431 30-30 30h-30v-15z" fill="#283d66"/><path d="m354.027 211h-98.027-98.027l-64.453 96.68 24.96 16.64h137.52 137.52l24.96-16.64z" fill="#ff415b"/><path d="m418.48 307.68-64.453-96.68h-98.027v113.32h137.52z" fill="#e50058"/><path d="m337.973 241h-81.973-81.973l-55.547 83.32h137.52 137.52z" fill="#405580"/><path d="m337.973 241h-81.973v83.32h137.52z" fill="#283d66"/><path d="m256 301h-195v105c0 24.853 20.147 45 45 45h150 150c24.853 0 45-20.147 45-45v-105z" fill="#ff7c48"/><path d="m451 406v-105h-195v150h150c24.853 0 45-20.147 45-45z" fill="#ff415b"/><g><path d="m136 361h-45v45c0 8.399 6.599 15 15 15h75v-15c0-24.901-20.099-45-45-45z" fill="#fed843"/></g><g><path d="m421 406v-45h-45c-24.814 0-45 20.186-45 45v15h75c8.284 0 15-6.716 15-15z" fill="#fabe2c"/></g><path d="m256 361h-45v30h45 45v-30z" fill="#ff415b"/><path d="m256 361h45v30h-45z" fill="#e50058"/></g><g fill="#edf5ff"><path d="m181.791 90.791 21.211 21.211c14.18-14.194 33.589-21.292 52.998-21.292s38.818 7.097 52.998 21.292l21.211-21.211c-19.835-19.849-47.021-29.773-74.209-29.773s-54.376 9.924-74.209 29.773z"/><path d="m224.169 133.198 21.24 21.182c2.813-2.827 6.702-4.241 10.591-4.241s7.778 1.414 10.591 4.241l21.24-21.182c-8.481-8.511-20.156-12.766-31.831-12.766s-23.35 4.256-31.831 12.766z"/><path d="m256 0c-44.019 0-85.43 17.183-116.616 48.384l21.211 21.211c25.517-25.532 59.399-39.595 95.405-39.595s69.888 14.063 95.405 39.595l21.211-21.211c-31.186-31.201-72.597-48.384-116.616-48.384z"/></g><g fill="#d5e8fe"><path d="m372.616 48.384c-31.186-31.201-72.597-48.384-116.616-48.384v30c36.006 0 69.888 14.063 95.405 39.595z"/><path d="m330.209 90.791c-19.835-19.849-47.021-29.773-74.209-29.773v29.692c19.409 0 38.818 7.097 52.998 21.292z"/><path d="m287.831 133.198c-8.481-8.511-20.156-12.766-31.831-12.766v29.707c3.889 0 7.778 1.414 10.591 4.241z"/></g></g></svg>