<svg height="512" viewBox="0 0 512 512" width="512" xmlns="http://www.w3.org/2000/svg" xmlns:xlink="http://www.w3.org/1999/xlink"><linearGradient id="linear-gradient" gradientUnits="userSpaceOnUse" x1="59.515" x2="132.485" y1="508.485" y2="435.515"><stop offset="0" stop-color="#f4a46d"/><stop offset=".397" stop-color="#f4a56f"/><stop offset=".606" stop-color="#f5aa77"/><stop offset=".77" stop-color="#f6b285"/><stop offset=".911" stop-color="#f7be98"/><stop offset="1" stop-color="#f8c8a8"/></linearGradient><linearGradient id="linear-gradient-2" x1="379.515" x2="452.485" xlink:href="#linear-gradient" y1="508.485" y2="435.515"/><linearGradient id="linear-gradient-3" gradientUnits="userSpaceOnUse" x1="105.757" x2="406.243" y1="506.728" y2="206.243"><stop offset="0" stop-color="#f9cc5c"/><stop offset=".461" stop-color="#f9cd5e"/><stop offset=".645" stop-color="#f9cf65"/><stop offset=".78" stop-color="#fad371"/><stop offset=".89" stop-color="#fad882"/><stop offset=".985" stop-color="#fbdf99"/><stop offset="1" stop-color="#fbe09d"/></linearGradient><linearGradient id="linear-gradient-4" gradientUnits="userSpaceOnUse" x1="92.902" x2="155.098" y1="415.098" y2="352.902"><stop offset="0" stop-color="#fcebbe"/><stop offset=".406" stop-color="#fcecc1"/><stop offset=".695" stop-color="#fdefca"/><stop offset=".948" stop-color="#fef4da"/><stop offset="1" stop-color="#fef5de"/></linearGradient><linearGradient id="linear-gradient-5" x1="356.902" x2="419.098" xlink:href="#linear-gradient-4" y1="415.098" y2="352.902"/><linearGradient id="linear-gradient-6" gradientUnits="userSpaceOnUse" x1="161.895" x2="346.317" y1="364.654" y2="180.232"><stop offset="0" stop-color="#fbe09d"/><stop offset=".293" stop-color="#fbe1a0"/><stop offset=".52" stop-color="#fce4aa"/><stop offset=".726" stop-color="#fceaba"/><stop offset=".918" stop-color="#fdf1d2"/><stop offset="1" stop-color="#fef5de"/></linearGradient><g id="_04-taxi" data-name="04-taxi"><g id="gradient"><rect fill="url(#linear-gradient)" height="72" rx="12" width="88" x="52" y="436"/><rect fill="url(#linear-gradient-2)" height="72" rx="12" width="88" x="372" y="436"/><path d="m464 240h-96a12 12 0 0 0 -8.485 20.485l48 40.486a12 12 0 0 0 8.485 3.514h48a12 12 0 0 0 12-12v-40.485a12 12 0 0 0 -12-12z" fill="#fad985"/><path d="m155.087 247.408a12 12 0 0 0 -11.087-7.408h-96a12 12 0 0 0 -12 12v40.485a12 12 0 0 0 12 12h48a12 12 0 0 0 8.485-3.514l48-40.486a12 12 0 0 0 2.602-13.077z" fill="#fad985"/><path d="m452.61 337.282-25.858-38.782-39.73-105.944a44.2 44.2 0 0 0 -41.198-28.556h-179.648a44.2 44.2 0 0 0 -41.2 28.551l-39.728 105.949-25.859 38.783a43.861 43.861 0 0 0 -7.389 24.406v86.311a12 12 0 0 0 12 12h384a12 12 0 0 0 12-12v-86.311a43.859 43.859 0 0 0 -7.39-24.407z" fill="url(#linear-gradient-3)"/><circle cx="124" cy="384" fill="url(#linear-gradient-4)" r="44"/><circle cx="388" cy="384" fill="url(#linear-gradient-5)" r="44"/><path d="m364.551 200.978a20.093 20.093 0 0 0 -18.727-12.978h-179.648a20.093 20.093 0 0 0 -18.727 12.978l-38.633 103.022h294.368z" fill="url(#linear-gradient-6)"/><path d="m192 376h128a12 12 0 0 0 0-24h-128a12 12 0 0 0 0 24z" fill="#fdf2d6"/><path d="m320 392h-128a12 12 0 0 0 0 24h128a12 12 0 0 0 0-24z" fill="#fdf2d6"/><path d="m289.941 140a11.958 11.958 0 0 1 -8.485-3.515 36.04 36.04 0 0 0 -50.912 0 12 12 0 0 1 -16.971-16.97 60.069 60.069 0 0 1 84.854 0 12 12 0 0 1 -8.486 20.485z" fill="#b2d26b"/><path d="m323.882 106.059a11.958 11.958 0 0 1 -8.486-3.515 84 84 0 0 0 -118.792 0 12 12 0 0 1 -16.971-16.97 108 108 0 0 1 152.734 0 12 12 0 0 1 -8.485 20.485z" fill="#c5dd90"/><path d="m357.823 72.118a11.963 11.963 0 0 1 -8.485-3.515c-51.467-51.467-135.209-51.467-186.676 0a12 12 0 0 1 -16.971-16.971c60.825-60.824 159.793-60.824 220.618 0a12 12 0 0 1 -8.486 20.486z" fill="#d8e8b5"/></g></g></svg>