<svg enable-background="new 0 0 110 110" height="512" viewBox="0 0 110 110" width="512" xmlns="http://www.w3.org/2000/svg"><path d="m58.9202385 57.8299026-7.7115974 2.5884896-7.1151581-2.5884896v-20.1712837h14.8267555z" fill="#f7be56"/><path d="m63.4580574 93.8253708v-39.0540886l-2.3816299-1.3043137-9.8118592 6.7084084-9.3272514-6.7084084-.4095612.2242813v40.134121z" fill="#d5d6db"/><path d="m76.1567535 62.6802406c-1.1398544-1.2543297-2.4811478-2.3118057-3.9689636-3.1266785l-9.5493851-5.2324638-1.5610733-.8560905-.9110107.178566c-.6271362 5.021904-3.0396614 22.1201439-8.6521301 38.7514687-5.6124153-16.6267395-8.0295258-33.7204475-8.656662-38.7468834l-.9201813-.1831512-1.538147.8423347-9.5768452 5.2462196c-1.4878139.8148727-2.8291073 1.8723488-3.9644299 3.1266785-2.5498753 2.806179-3.9598427 6.4593315-3.9598427 10.2497826v18.0143737c0 2.99823 2.4305439 5.4287796 5.4287758 5.4287796h46.3609619c2.99823 0 5.428772-2.4305496 5.428772-5.4287796v-18.0143738c.0000001-3.7904511-1.4099654-7.4436035-3.9598388-10.2497826z" fill="#d5d6db"/><path d="m58.9202385 49.6807137-6.1040001 8.3990058 4.8525391 5.2315484 3.4076423-9.8442879z" fill="#ebf0f3"/><path d="m44.0429878 49.6807137 6.1040039 8.3990058-4.8525428 5.2315484-3.4076386-9.8442879z" fill="#ebf0f3"/><g fill="#fcd462"><ellipse cx="62.919" cy="34.22" rx="2.929" ry="1.405" transform="matrix(.162 -.987 .987 .162 18.983 90.783)"/><ellipse cx="40.321" cy="34.22" rx="1.405" ry="2.929" transform="matrix(.997 -.072 .072 .997 -2.345 2.972)"/><path d="m62.3820381 37.2996521-.4369507-12.8978195-1.5293236-4.1586342-8.937458-2.4108067-8.9374542 2.4108067-1.5293236 4.1586342-.4369507 12.8978195s-.5097694 3.1340446.655426 5.4243088 2.2575684 3.3361053 3.7868881 4.8623734c1.5293236 1.526268 3.5284157 1.999527 6.4614143 2.0943794 2.9329987-.0948524 4.9320946-.5681114 6.4614143-2.0943794 1.5293236-1.526268 2.6216927-2.5721092 3.7868881-4.8623734s.65543-5.4243088.65543-5.4243088z"/></g><path d="m50.0951538 64.3187485v18.9007034h2.2271271v-18.9007034c.2904282-4.6202354 1.905407-5.9253311 1.905407-5.9253311l-.9371681-1.0103989-1.9906425 2.3771133-1.6740456-2.3771133-1.4361954 1.0103989c-.0000001 0 1.6150932 1.3050956 1.9055175 5.9253311z" fill="#ebf0f3"/><path d="m41.4497452 30.1650543c0-.5699863.6412315-7.7638016.6412315-7.7638016l19.1657715.9239731.2849922 12.1188316h.6412354s.7122459-5.078846.8209152-5.1764088c.7242813-.6502438 1.2426071-1.5050335 1.3250809-2.4748764.1709976-2.0109081.0341949-5.0375328-1.7185059-7.6024685-2.9211769-4.2748938-10.4022408-4.4173899-16.957077-4.4886379 0 0-3.9186516-1.6387091-4.2036438-3.6336594 0 0-3.7049103-1.1399717-3.4911652 6.6260853s2.2086945 12.3259411 2.2086945 12.3259411.4274902 1.2824688.5699883 2.921175l.5699844-.1424942z" fill="#3a556a"/><path d="m84.6574707 63.6333199-4.333519-.3048477 2.4147339 9.9456444 3.7112579-2.2580643c.5048599-.3071594.7529831-.9056702.6135559-1.4799576l-1.1821442-4.868927c-.1394347-.5742951-.6343841-.9923859-1.2238845-1.0338478z" fill="#474c5b"/><path d="m55.9916992 90.3404388-3.1418915-4.9071121 1.4833298 7.5285187 1.6317711-2.0723801c.124939-.1586685.1357117-.3789901.0267906-.5490265z" fill="#e56353"/><path d="m45.8537254 80.9446106 5.6146431 15.5792236c.3841515 1.065979 1.5098267 1.6712112 2.6109085 1.4038773 1.1908264-.2891235 1.9218292-1.4888458 1.6327057-2.6796722l-3.8282318-15.7674789z" fill="#2f4859"/><path d="m76.0841064 49.8745956s-7.7521973 13.8088951-27.2307701 22.0632629l.9209976 3.7933578.1139183.4691925.9209976 3.7933578c21.0950317-1.5966187 34.3162766 7.120079 34.3162766 7.120079l-5.0561218-18.4896317z" fill="#e56353"/><g fill="#3a556a"><path d="m76.3151703 49.355793c-1.0213318.2479744-1.6482697 1.2769508-1.4002914 2.2982826l8.3702927 34.4750671c.2479782 1.0213318 1.2769547 1.648262 2.2982864 1.4002914s1.6482697-1.276947 1.4002914-2.2982864l-8.3702927-34.4750595c-.2479782-1.0213317-1.2769546-1.6482658-2.2982864-1.4002952z"/><path d="m51.4250755 69.1959763-8.7668495 2.1285247c-.6964149.1690826-1.1239052.8707199-.9548187 1.567131l2.314579 9.5331497c.1690826.6964111.8707161 1.1239014 1.567131.9548187l8.7668495-2.1285248c.6964149-.1690903 1.1239052-.8707199.9548187-1.567131l-2.314579-9.5331497c-.1690826-.6964187-.870716-1.1239089-1.567131-.9548186z"/></g></svg>